<?xml version="1.0" encoding="iso-8859-1"?>
<!-- Generator: Adobe Illustrator 18.0.0, SVG Export Plug-In . SVG Version: 6.00 Build 0)  -->
<!DOCTYPE svg PUBLIC "-//W3C//DTD SVG 1.1//EN" "http://www.w3.org/Graphics/SVG/1.1/DTD/svg11.dtd">
<svg version="1.1" id="Capa_1" xmlns="http://www.w3.org/2000/svg" xmlns:xlink="http://www.w3.org/1999/xlink" x="0px" y="0px"
	 viewBox="0 0 493.197 493.197" style="enable-background:new 0 0 493.197 493.197;" xml:space="preserve">
<g>
	<path d="M114.352,297.47l-97.509,97.501c-22.448,22.463-22.466,58.9,0,81.372c22.48,22.47,58.906,22.462,81.386,0l97.434-97.44
		c-16.619-9.588-32.092-21.416-46.023-35.349C135.567,329.482,123.816,313.959,114.352,297.47z"/>
	<path d="M438.242,54.94C402.814,19.514,355.699,0.005,305.594,0.005c-50.109,0-97.205,19.519-132.641,54.952
		c-73.148,73.147-73.148,192.156,0,265.296c35.436,35.442,82.531,54.958,132.641,54.958c50.105,0,97.206-19.517,132.635-54.95
		c35.449-35.423,54.969-82.53,54.969-132.644C493.197,137.502,473.678,90.387,438.242,54.94z M403.28,285.305
		c-26.1,26.098-60.79,40.477-97.687,40.477c-36.897,0-71.592-14.378-97.688-40.477c-53.873-53.872-53.873-141.529,0-195.4
		c26.097-26.091,60.791-40.467,97.688-40.467c36.91,0,71.601,14.369,97.7,40.46c26.102,26.107,40.469,60.807,40.469,97.72
		C443.763,224.52,429.396,259.213,403.28,285.305z"/>
	<path d="M369.1,162.893l-38.794,0.003v-38.766c0-13.653-11.066-24.715-24.712-24.715c-13.645,0-24.717,11.062-24.717,24.715v38.769
		l-38.764,0.003c-13.645,0-24.716,11.069-24.716,24.715c0,13.652,11.071,24.715,24.716,24.715l38.764-0.002v38.765
		c0,13.654,11.072,24.717,24.717,24.717c13.646,0,24.712-11.063,24.712-24.717v-38.768l38.794-0.002
		c13.646,0,24.719-11.072,24.719-24.717C393.818,173.955,382.746,162.893,369.1,162.893z"/>
</g>
<g>
</g>
<g>
</g>
<g>
</g>
<g>
</g>
<g>
</g>
<g>
</g>
<g>
</g>
<g>
</g>
<g>
</g>
<g>
</g>
<g>
</g>
<g>
</g>
<g>
</g>
<g>
</g>
<g>
</g>
</svg>
